<svg width="92" height="84" viewBox="0 0 92 84" fill="none" xmlns="http://www.w3.org/2000/svg">
<g opacity="0.8" filter="url(#filter0_d_283_335)">
<path d="M28 48C41.2548 48 52 37.2548 52 24C52 10.7452 41.2548 0 28 0C14.7452 0 4 10.7452 4 24C4 37.2548 14.7452 48 28 48Z" fill="#B41111"/>
<g clip-path="url(#clip0_283_335)">
<path d="M25.2211 73.3116C24.7462 73.1767 24.4748 72.6707 24.407 71.7934C24.2713 71.3549 24.1695 70.8318 24.1017 70.2245C24.0677 69.6173 24.0508 68.9258 24.0508 68.1496C24.0508 67.4412 24.1695 66.4626 24.407 65.2144C24.6444 63.9999 24.9667 62.6165 25.3737 61.0647C25.8147 59.5129 26.3405 57.8428 26.9511 56.0546C27.5616 54.2327 28.2401 52.3939 28.9863 50.5384C29.9022 48.2105 30.6993 46.2032 31.3778 44.5162C32.0562 42.7956 32.6159 41.3111 33.0569 40.0628C33.5318 38.8145 33.9049 37.7855 34.1763 36.9758C34.4816 36.1661 34.719 35.4744 34.8886 34.9009C35.0243 34.496 35.2278 34.0068 35.4992 33.4333C35.7706 32.8597 36.0759 32.2862 36.4151 31.7126C36.7883 31.1054 37.1614 30.5487 37.5345 30.0426C37.9077 29.5028 38.2469 29.098 38.5521 28.828C39.7394 28.9967 40.8588 29.3004 41.9104 29.739C42.9619 30.1776 43.6064 30.5993 43.8439 31.0041C43.369 31.4427 42.8262 32.1344 42.2157 33.079C41.6051 33.99 41.0115 35.0021 40.4348 36.1154C39.8581 37.1951 39.3324 38.3084 38.8574 39.4555C38.3825 40.6026 38.0264 41.6146 37.7889 42.4919C38.1281 41.9182 38.5691 41.2942 39.1118 40.6195C39.6546 39.9447 40.4857 39.0169 41.6051 37.8361C42.8601 36.554 44.0304 35.5757 45.1159 34.9009C46.2353 34.1924 47.2021 33.8381 48.0162 33.8381C49.3052 33.8381 50.3568 34.1924 51.1709 34.9009C52.0189 35.6094 52.4429 36.5203 52.4429 37.6337C52.4429 40.0628 52.0359 42.4749 51.2218 44.8704C50.4077 47.232 49.2374 49.3745 47.7109 51.2975C47.1342 52.0396 46.4558 52.7481 45.6756 53.423C44.8954 54.0979 44.0813 54.7052 43.2333 55.2449C42.3853 55.7509 41.5542 56.1558 40.7401 56.4594C39.926 56.7631 39.1966 56.9149 38.5521 56.9149C37.9416 56.9149 37.3988 56.7967 36.9239 56.5607C36.483 56.2906 36.1777 55.9704 36.008 55.5991C37.331 54.823 38.62 53.7437 39.8751 52.3603C41.1302 50.9769 42.2835 49.3915 43.3351 47.6032C44.4206 45.7814 45.3534 43.8247 46.1336 41.7328C46.9477 39.6411 47.5583 37.5156 47.9653 35.3563C46.6763 36.0311 45.506 36.7733 44.4545 37.583C43.4368 38.359 42.4192 39.388 41.4015 40.6701C40.1804 42.1547 39.2136 43.3522 38.5013 44.2632C37.7889 45.1741 37.1953 45.9502 36.7204 46.5911C36.2794 47.232 35.9063 47.8393 35.601 48.4129C35.3296 48.9526 35.0243 49.6275 34.6851 50.4372C34.2102 51.517 33.6505 52.9506 33.006 54.7388C32.3954 56.493 31.7509 58.4667 31.0725 60.6598C30.428 62.8529 29.7665 65.1808 29.0881 67.6436C28.4436 70.1403 27.816 72.6201 27.2055 75.0828C26.8323 75.0152 26.5101 74.7456 26.2387 74.2731C25.9673 73.9695 25.7638 73.75 25.6281 73.6152C25.5264 73.4804 25.3907 73.3792 25.2211 73.3116ZM54.2262 53.3218C54.2262 51.8372 54.5824 49.7623 55.2947 47.0972C56.0071 44.398 57.0077 41.2605 58.2967 37.6843C60.3999 31.9826 62.3673 27.2423 64.1991 23.4637C66.0646 19.6513 67.8797 16.6824 69.6434 14.5569C70.0505 14.6244 70.5422 14.793 71.119 15.063C71.7296 15.3329 72.3231 15.6365 72.8999 15.9739C73.4767 16.2775 73.9855 16.598 74.4263 16.9354C74.9014 17.2728 75.2067 17.5427 75.3422 17.7451C72.6963 20.849 70.3729 24.1891 68.3714 27.7653C66.3699 31.3415 64.5381 35.4407 62.8761 40.0628C61.4514 44.0437 60.3659 47.6368 59.6197 50.8421C58.8734 54.0133 58.5003 56.6619 58.5003 58.7874C58.5003 59.361 58.5003 59.7153 58.5003 59.8501C58.5003 59.9849 58.5172 60.1201 58.5512 60.255C58.0762 60.1874 57.6692 60.0695 57.33 59.9007C56.9908 59.7319 56.7703 59.5295 56.6685 59.2934C56.6007 59.1246 56.4141 58.8716 56.1088 58.5343C55.8035 58.2307 55.5321 57.9946 55.2947 57.8258C54.9894 57.6234 54.735 57.1003 54.5315 56.257C54.3279 55.3797 54.2262 54.4016 54.2262 53.3218ZM64.4702 55.8522C64.4702 55.3125 64.9452 54.4522 65.8949 53.2712C66.8445 52.0566 68.0999 50.6902 69.6601 49.172C71.2546 47.6202 73.0692 46.0008 75.1045 44.3138C77.1736 42.5931 79.3106 40.94 81.5156 39.3543C80.0909 39.0506 78.9544 38.8313 78.1065 38.6964C77.2924 38.5615 76.631 38.494 76.1221 38.494C75.1383 38.494 74.2566 38.6289 73.4763 38.8988C72.6959 39.1687 71.9327 39.6073 71.1866 40.2146C69.6263 38.8651 68.846 37.3131 68.846 35.5588C68.846 35.019 68.8631 34.6985 68.8969 34.5972C69.4737 34.0237 70.1519 33.5851 70.9322 33.2815C71.7463 32.9778 72.5942 32.826 73.4763 32.826C74.4259 32.826 75.3927 32.9778 76.3765 33.2815C77.3604 33.5851 78.3272 33.9225 79.2768 34.2936C80.2265 34.631 81.1086 34.9515 81.9227 35.2551C82.7706 35.5588 83.5171 35.7106 84.1615 35.7106C84.5348 35.7106 84.9418 35.66 85.3827 35.5588C85.8577 35.4576 86.2477 35.3226 86.5529 35.1539C86.8582 35.3901 87.1297 35.8624 87.3671 36.5709C87.6386 37.2794 87.7741 37.971 87.7741 38.6458C86.7227 39.0506 85.4506 39.7591 83.958 40.7713C82.4995 41.7834 81.0068 42.9474 79.4803 44.2632C77.9539 45.5789 76.4612 46.9789 75.0027 48.4635C73.578 49.9481 72.3907 51.3481 71.441 52.6639C72.1533 52.9676 73.1201 53.1194 74.3413 53.1194C75.1216 53.1194 75.9186 53.0518 76.7327 52.917C77.5468 52.7821 78.3272 52.5963 79.0733 52.3603C79.8536 52.1242 80.566 51.8542 81.2103 51.5506C81.8547 51.2133 82.3977 50.8591 82.8386 50.4878C84.433 51.5 85.23 52.9846 85.23 54.9412C85.23 55.2113 85.2129 55.4303 85.1791 55.5991C85.1791 55.7679 85.162 55.9704 85.1282 56.2064C83.568 57.1849 81.8718 57.674 80.04 57.674C79.1242 57.674 78.2083 57.5728 77.2924 57.3704C76.3765 57.2015 75.4778 57.0161 74.5957 56.8137C73.7478 56.6113 72.9337 56.4258 72.1533 56.257C71.4072 56.0546 70.7116 55.9534 70.0672 55.9534C68.439 55.9534 67.116 56.7125 66.0984 58.2307C65.6575 58.0619 65.2843 57.7582 64.979 57.3198C64.7075 56.8813 64.5381 56.3918 64.4702 55.8522Z" fill="white"/>
</g>
</g>
<defs>
<filter id="filter0_d_283_335" x="0" y="0" width="92" height="83.1428" filterUnits="userSpaceOnUse" color-interpolation-filters="sRGB">
<feFlood flood-opacity="0" result="BackgroundImageFix"/>
<feColorMatrix in="SourceAlpha" type="matrix" values="0 0 0 0 0 0 0 0 0 0 0 0 0 0 0 0 0 0 127 0" result="hardAlpha"/>
<feOffset dy="4"/>
<feGaussianBlur stdDeviation="2"/>
<feComposite in2="hardAlpha" operator="out"/>
<feColorMatrix type="matrix" values="0 0 0 0 0 0 0 0 0 0 0 0 0 0 0 0 0 0 0.25 0"/>
<feBlend mode="normal" in2="BackgroundImageFix" result="effect1_dropShadow_283_335"/>
<feBlend mode="normal" in="SourceGraphic" in2="effect1_dropShadow_283_335" result="shape"/>
</filter>
<clipPath id="clip0_283_335">
<rect width="64" height="73.1429" fill="white" transform="translate(24 2)"/>
</clipPath>
</defs>
</svg>
