<svg width="66" height="66" viewBox="0 0 66 66" fill="none" xmlns="http://www.w3.org/2000/svg">
<g opacity="0.85" clip-path="url(#clip0_278_219)">
<path d="M66 33C66 14.7746 51.2254 0 33 0C14.7746 0 0 14.7746 0 33C0 51.2254 14.7746 66 33 66C51.2254 66 66 51.2254 66 33Z" fill="#5865F2"/>
<path d="M45.6183 21.4775C43.3642 20.4231 40.9796 19.674 38.5274 19.25C38.2208 19.8028 37.8647 20.5452 37.6186 21.1365C35.0138 20.7389 32.3638 20.7389 29.7591 21.1365C29.5116 20.5452 29.1472 19.8028 28.8392 19.25C26.3846 19.6746 23.9979 20.4261 21.7428 21.4844C17.2548 28.2659 16.0366 34.8796 16.6457 41.3999C19.6226 43.6232 22.5073 44.9735 25.3439 45.8562C26.0452 44.8937 26.6681 43.868 27.2071 42.79C26.1884 42.4015 25.2064 41.923 24.2728 41.36C24.5203 41.1785 24.7596 40.9887 24.9919 40.7921C30.6487 43.4376 36.7936 43.4376 42.3829 40.7921C42.6167 40.9887 42.8587 41.1785 43.1021 41.3614C42.1668 41.9249 41.183 42.4035 40.1623 42.7914C40.7013 43.868 41.3228 44.8951 42.0254 45.859C45.1635 44.8891 48.1088 43.3802 50.7292 41.3999C51.4428 33.8415 49.5096 27.2883 45.6183 21.4789V21.4775ZM27.9771 37.3904C26.2789 37.3904 24.8861 35.805 24.8861 33.8745C24.8861 31.944 26.2501 30.3572 27.9771 30.3572C29.7054 30.3572 31.0983 31.9412 31.0681 33.8745C31.0708 35.805 29.7054 37.3904 27.9771 37.3904ZM39.3978 37.3904C37.6997 37.3904 36.3068 35.805 36.3068 33.8745C36.3068 31.944 37.6694 30.3572 39.3978 30.3572C41.1248 30.3572 42.5177 31.9412 42.4874 33.8745C42.4874 35.805 41.1262 37.3904 39.3978 37.3904Z" fill="white"/>
</g>
<defs>
<clipPath id="clip0_278_219">
<rect width="66" height="66" fill="white"/>
</clipPath>
</defs>
</svg>
