<svg width="44" height="44" viewBox="0 0 44 44" fill="none" xmlns="http://www.w3.org/2000/svg">
<g clip-path="url(#clip0_100_692)">
<path d="M44 22C44 9.84974 34.1503 0 22 0C9.84974 0 0 9.84974 0 22C0 34.1503 9.84974 44 22 44C34.1503 44 44 34.1503 44 22Z" fill="#5865F2"/>
<path d="M30.412 14.3185C28.9093 13.6156 27.3196 13.1162 25.6848 12.8335C25.4804 13.202 25.243 13.697 25.0789 14.0912C23.3424 13.8261 21.5757 13.8261 19.8392 14.0912C19.6742 13.697 19.4313 13.202 19.226 12.8335C17.5896 13.1166 15.9985 13.6176 14.4951 14.3231C11.5031 18.8441 10.6909 23.2532 11.097 27.6001C13.0816 29.0823 15.0047 29.9825 16.8958 30.571C17.3633 29.9293 17.7786 29.2455 18.1379 28.5268C17.4588 28.2679 16.8041 27.9488 16.1817 27.5735C16.3467 27.4525 16.5062 27.326 16.6611 27.1949C20.4323 28.9586 24.5289 28.9586 28.2551 27.1949C28.411 27.326 28.5723 27.4525 28.7346 27.5744C28.1111 27.9501 27.4552 28.2692 26.7747 28.5277C27.1341 29.2455 27.5484 29.9302 28.0168 30.5728C30.1089 29.9262 32.0723 28.9203 33.8193 27.6001C34.2951 22.5612 33.0062 18.1923 30.412 14.3194V14.3185ZM18.6512 24.9271C17.5191 24.9271 16.5906 23.8702 16.5906 22.5832C16.5906 21.2962 17.4999 20.2383 18.6512 20.2383C19.8035 20.2383 20.7321 21.2943 20.7119 22.5832C20.7137 23.8702 19.8035 24.9271 18.6512 24.9271ZM26.2651 24.9271C25.133 24.9271 24.2044 23.8702 24.2044 22.5832C24.2044 21.2962 25.1128 20.2383 26.2651 20.2383C27.4164 20.2383 28.345 21.2943 28.3248 22.5832C28.3248 23.8702 27.4173 24.9271 26.2651 24.9271Z" fill="white"/>
</g>
<defs>
<clipPath id="clip0_100_692">
<rect width="44" height="44" fill="white"/>
</clipPath>
</defs>
</svg>
