<svg width="66" height="66" viewBox="0 0 66 66" fill="none" xmlns="http://www.w3.org/2000/svg">
<g opacity="0.85" clip-path="url(#clip0_278_212)">
<path d="M65.6563 33C65.6563 14.9645 51.0356 0.34375 33 0.34375C14.9645 0.34375 0.34375 14.9645 0.34375 33C0.34375 51.0356 14.9645 65.6563 33 65.6563C51.0356 65.6563 65.6563 51.0356 65.6563 33Z" fill="white"/>
<path d="M65.6563 33C65.6563 14.9645 51.0356 0.34375 33 0.34375C14.9645 0.34375 0.34375 14.9645 0.34375 33C0.34375 51.0356 14.9645 65.6563 33 65.6563C51.0356 65.6563 65.6563 51.0356 65.6563 33Z" stroke="#7C7C7C" stroke-width="0.5"/>
<path d="M32.9999 23.1618C36.0126 23.1618 38.0448 24.4625 39.2026 25.5488L43.7304 21.1295C40.9502 18.5445 37.3312 16.9578 32.9999 16.9578C26.7258 16.9578 21.3083 20.5589 18.6697 25.799L23.8562 29.8278C25.1583 25.9599 28.7581 23.1618 32.9999 23.1618Z" fill="#EA4335"/>
<path d="M48.4 33.3574C48.4 32.0374 48.2927 31.0749 48.0617 30.0767H33V36.0304H41.8413C41.6625 37.5099 40.7 39.7374 38.5605 41.2348L43.6232 45.1563C46.6537 42.3582 48.4 38.2414 48.4 33.3574Z" fill="#4285F4"/>
<path d="M23.874 36.1734C23.5234 35.152 23.3427 34.0799 23.3391 32.9999C23.3391 31.8944 23.5358 30.8261 23.8561 29.8278L18.6696 25.7991C17.546 28.0333 16.9598 30.4991 16.9578 32.9999C16.9578 35.5849 17.582 38.0269 18.6696 40.2008L23.874 36.1721V36.1734Z" fill="#FBBC05"/>
<path d="M33.0001 49.0422C37.3314 49.0422 40.9682 47.6163 43.6234 45.1565L38.562 41.235C37.2062 42.1796 35.3885 42.8396 33.0001 42.8396C28.7582 42.8396 25.1571 40.0415 23.8742 36.1736L18.6877 40.2023C21.325 45.4411 26.7246 49.0422 33.0001 49.0422Z" fill="#34A853"/>
</g>
<defs>
<clipPath id="clip0_278_212">
<rect width="66" height="66" fill="white"/>
</clipPath>
</defs>
</svg>
